<svg width="38" height="27" viewBox="0 0 38 27" fill="none" xmlns="http://www.w3.org/2000/svg">
<path d="M1.65218 0.65625H36.3478C36.795 0.665635 37.2203 0.85723 37.53 1.18933C37.8398 1.52143 38.0087 1.96671 37.9997 2.42703V24.5625C38.0087 25.0228 37.8398 25.4676 37.53 25.7997C37.2203 26.1318 36.795 26.3239 36.3478 26.3333H1.65218C1.20503 26.3239 0.779745 26.1318 0.469981 25.7997C0.160216 25.4676 -0.00869289 25.0228 0.000344875 24.5625V2.42703C-0.00869289 1.96671 0.160216 1.52143 0.469981 1.18933C0.779745 0.85723 1.20503 0.665635 1.65218 0.65625Z" fill="#5870BE"/>
<path d="M16.6172 13.4882C16.6176 11.6747 17.1403 9.90203 18.1193 8.39431C19.0983 6.8866 20.4896 5.71159 22.1173 5.01782C23.745 4.32404 25.5359 4.14273 27.2637 4.49671C28.9915 4.85068 30.5785 5.72408 31.8242 7.00651C33.0698 8.28894 33.918 9.9228 34.2617 11.7015C34.6054 13.4802 34.4289 15.3239 33.7548 16.9994C33.0807 18.6749 31.9392 20.1067 30.4745 21.1144C29.0098 22.122 27.2876 22.6601 25.526 22.6603C24.356 22.6603 23.1974 22.4231 22.1165 21.9621C21.0355 21.5012 20.0534 20.8257 19.2261 19.9739C18.3988 19.1222 17.7426 18.1112 17.295 16.9984C16.8473 15.8856 16.6171 14.6927 16.6172 13.4882Z" fill="#FFAF38"/>
<path d="M11.8765 22.6624C10.3576 22.6622 8.86394 22.2622 7.53743 21.5005C6.21093 20.7387 5.09567 19.6404 4.29758 18.31C3.49949 16.9795 3.04509 15.4613 2.97756 13.8992C2.91003 12.3371 3.23162 10.7829 3.91175 9.38476C4.59187 7.98661 5.60798 6.79109 6.8635 5.91102C8.11902 5.03096 9.57221 4.49575 11.0851 4.35667C12.5981 4.21759 14.1204 4.47901 15.5076 5.11614C16.8947 5.75327 18.1006 6.74499 19.0106 7.99696H17.8201V8.60983H19.4203C19.5403 8.80489 19.6535 9.00697 19.7586 9.21122H17.2248V9.82409H20.0453C20.1326 10.0283 20.211 10.2327 20.2804 10.437H16.6296V11.0493H20.4669C20.9493 12.861 20.8828 14.7813 20.2765 16.5531H16.6296V17.166H20.0413C19.952 17.3774 19.8558 17.5743 19.7586 17.7694H17.2248V18.3823H19.4134C19.2814 18.5967 19.1435 18.8021 19.0037 18.9951H17.8201V19.608H18.5145C17.6784 20.5684 16.6552 21.3367 15.5116 21.863C14.3679 22.3893 13.1293 22.6615 11.8765 22.6624Z" fill="#E63737"/>
<path d="M2.12893 15.0513L2.66024 10.7894L3.50833 10.9014L4.13999 14.0522C4.1979 14.3455 4.23945 14.5648 4.26465 14.7099C4.33239 14.5613 4.4363 14.3435 4.57637 14.0567L5.9655 11.226L6.72356 11.3262L6.19225 15.5881L5.64912 15.5164L6.09381 11.9492L4.41183 15.3529L3.90355 15.2857L3.12436 11.4949L2.67206 15.1231L2.12893 15.0513ZM9.09481 15.5845C8.88064 15.7236 8.67929 15.8152 8.49076 15.8593C8.30416 15.9036 8.10824 15.9122 7.90299 15.885C7.56414 15.8403 7.31397 15.7235 7.1525 15.5347C6.99127 15.344 6.92672 15.1197 6.95885 14.862C6.9777 14.7108 7.02874 14.5777 7.11197 14.4626C7.19738 14.3458 7.29998 14.2569 7.41978 14.1959C7.5415 14.1352 7.67449 14.0946 7.81874 14.0743C7.92474 14.0607 8.08291 14.055 8.29323 14.0572C8.72163 14.0626 9.0399 14.0435 9.24803 14.0001C9.25891 13.9286 9.26556 13.8832 9.26797 13.8638C9.29455 13.6507 9.2639 13.4939 9.17602 13.3937C9.05715 13.2578 8.86605 13.1725 8.60272 13.1377C8.3568 13.1052 8.16936 13.1247 8.04037 13.1964C7.91356 13.2663 7.80843 13.407 7.72497 13.6186L7.22249 13.4813C7.29626 13.2685 7.39473 13.1022 7.5179 12.9825C7.64131 12.8609 7.80817 12.7776 8.01849 12.7325C8.22904 12.6854 8.46696 12.6794 8.73223 12.7145C8.99557 12.7493 9.20566 12.8085 9.36252 12.8923C9.51937 12.9761 9.6306 13.0705 9.69622 13.1757C9.76207 13.279 9.80155 13.4044 9.81465 13.5519C9.82096 13.6434 9.80962 13.8054 9.78063 14.038L9.69365 14.7357C9.633 15.2222 9.60524 15.5317 9.61035 15.6644C9.61764 15.7954 9.64683 15.9243 9.69793 16.0513L9.15189 15.9791C9.1112 15.8634 9.09218 15.7319 9.09481 15.5845ZM9.19693 14.41C8.99751 14.4625 8.70466 14.4908 8.31838 14.4949C8.09958 14.4975 7.94324 14.5123 7.84933 14.5393C7.75543 14.5663 7.67956 14.6144 7.62173 14.6836C7.56415 14.7508 7.52967 14.83 7.51832 14.9211C7.50092 15.0607 7.5387 15.1838 7.63167 15.2907C7.72657 15.3978 7.87567 15.4648 8.07898 15.4916C8.28036 15.5182 8.4649 15.4983 8.63262 15.4318C8.80057 15.3634 8.93088 15.2574 9.02355 15.1141C9.09444 15.0032 9.14426 14.8325 9.17301 14.6019L9.19693 14.41ZM10.2514 15.1876L10.7785 15.1745C10.7817 15.3857 10.8423 15.5553 10.9602 15.6831C11.08 15.8113 11.259 15.8911 11.4972 15.9225C11.7373 15.9542 11.9214 15.9293 12.0497 15.8478C12.1782 15.7643 12.2507 15.6566 12.2671 15.5248C12.2818 15.4066 12.2421 15.3068 12.1479 15.2254C12.0821 15.1694 11.9113 15.0868 11.6356 14.9775C11.2643 14.8299 11.0085 14.7114 10.8681 14.6219C10.7299 14.5308 10.6298 14.4181 10.5678 14.2838C10.508 14.1478 10.4875 14.0043 10.5063 13.8531C10.5235 13.7155 10.5703 13.5926 10.6467 13.4845C10.7254 13.3748 10.8237 13.2883 10.9418 13.2251C11.0307 13.1757 11.1473 13.1399 11.2918 13.1176C11.4385 13.0937 11.5921 13.0923 11.7529 13.1135C11.9949 13.1455 12.2026 13.2084 12.3759 13.3022C12.5511 13.3963 12.6748 13.5092 12.747 13.6408C12.8194 13.7706 12.8596 13.9374 12.8676 14.1414L12.3478 14.1437C12.3443 13.9817 12.292 13.8487 12.1908 13.7447C12.0916 13.6409 11.9403 13.5756 11.737 13.5488C11.4969 13.5171 11.3206 13.5342 11.208 13.6001C11.0955 13.666 11.0326 13.7522 11.0193 13.8588C11.0108 13.9266 11.0245 13.9905 11.0604 14.0504C11.096 14.1122 11.157 14.1676 11.2434 14.2164C11.2932 14.2427 11.4416 14.3076 11.6885 14.4112C12.046 14.5589 12.2934 14.6743 12.4307 14.7574C12.5701 14.8389 12.6739 14.9452 12.7422 15.0764C12.8105 15.2075 12.8335 15.3623 12.8113 15.5406C12.7896 15.715 12.7177 15.873 12.5958 16.0145C12.476 16.1543 12.3149 16.2542 12.1126 16.3141C11.9105 16.3721 11.6885 16.3851 11.4464 16.3532C11.0456 16.3002 10.7501 16.1765 10.5598 15.9819C10.3714 15.7876 10.2686 15.5228 10.2514 15.1876ZM14.5196 16.2125L14.5375 16.6847C14.3864 16.6963 14.2528 16.6944 14.1367 16.679C13.9469 16.654 13.8035 16.6045 13.7064 16.5306C13.6094 16.4567 13.5456 16.3685 13.515 16.2659C13.4848 16.1615 13.4892 15.9522 13.5283 15.6383L13.7498 13.862L13.3664 13.8113L13.4171 13.4043L13.8005 13.455L13.8958 12.6904L14.4549 12.4451L14.3204 13.5237L14.8461 13.5931L14.7954 14.0001L14.2697 13.9307L14.0446 15.736C14.026 15.8853 14.0228 15.9823 14.0349 16.0273C14.0489 16.0725 14.0747 16.1104 14.1122 16.1409C14.1517 16.1718 14.2101 16.1923 14.2876 16.2025C14.3457 16.2102 14.423 16.2135 14.5196 16.2125ZM17.2108 16.0332L17.7427 16.1714C17.6181 16.476 17.4297 16.7004 17.1776 16.8444C16.9254 16.9884 16.6202 17.0367 16.262 16.9894C15.8108 16.9298 15.4699 16.7439 15.2392 16.4317C15.0106 16.1178 14.9277 15.7099 14.9902 15.2079C15.055 14.6885 15.2388 14.303 15.5418 14.0514C15.8448 13.7999 16.2093 13.7023 16.6352 13.7586C17.0477 13.813 17.3671 13.9981 17.5934 14.3136C17.8198 14.6292 17.9012 15.0418 17.8377 15.5516C17.8338 15.5826 17.827 15.629 17.8174 15.6907L15.517 15.3868C15.4941 15.7285 15.5576 16.0009 15.7075 16.2039C15.8573 16.4069 16.061 16.5255 16.3185 16.5595C16.5102 16.5848 16.6801 16.556 16.8282 16.4732C16.9763 16.3903 17.1039 16.2436 17.2108 16.0332ZM15.5997 14.9604L17.3221 15.1879C17.3312 14.9252 17.2897 14.7217 17.1974 14.5775C17.056 14.3539 16.8527 14.2246 16.5874 14.1896C16.3473 14.1579 16.1349 14.2116 15.9503 14.3507C15.7676 14.4901 15.6507 14.6933 15.5997 14.9604ZM18.2806 17.1851L18.6655 14.0977L19.136 14.1598L19.0776 14.6279C19.225 14.4248 19.3534 14.2949 19.4627 14.2385C19.5741 14.1823 19.6907 14.1622 19.8127 14.1783C19.9889 14.2016 20.161 14.2815 20.329 14.4179L20.0884 14.8796C19.97 14.7872 19.847 14.7325 19.7192 14.7156C19.6049 14.7005 19.4979 14.7218 19.3982 14.7796C19.2988 14.8354 19.2221 14.9218 19.1681 15.0388C19.0868 15.2172 19.0324 15.4168 19.0049 15.6378L18.8034 17.2542L18.2806 17.1851ZM23.5584 16.3635L24.1041 16.5804C23.9282 17.028 23.6711 17.3535 23.3328 17.5571C22.9967 17.7589 22.6069 17.8306 22.1635 17.772C21.7046 17.7113 21.3425 17.5689 21.0772 17.3448C20.814 17.1189 20.629 16.8187 20.5222 16.444C20.4173 16.0697 20.3903 15.679 20.441 15.272C20.4963 14.8281 20.6288 14.4526 20.8383 14.1454C21.05 13.8365 21.3224 13.6173 21.6554 13.488C21.9906 13.3569 22.346 13.3162 22.7216 13.3658C23.1476 13.4221 23.4923 13.578 23.7557 13.8334C24.0191 14.0888 24.1834 14.4208 24.2485 14.8294L23.6775 14.8869C23.6174 14.5638 23.5023 14.319 23.3321 14.1527C23.1619 13.9864 22.9345 13.8845 22.6498 13.8469C22.3226 13.8037 22.0388 13.846 21.7985 13.9738C21.5602 14.1019 21.3799 14.2928 21.2577 14.5465C21.1358 14.7984 21.0573 15.0648 21.0223 15.3458C20.9771 15.7082 20.9899 16.032 21.0606 16.3172C21.1335 16.6006 21.273 16.824 21.479 16.9871C21.685 17.1502 21.9177 17.249 22.1772 17.2832C22.4928 17.3249 22.7714 17.2691 23.0129 17.1159C23.2544 16.9626 23.4362 16.7118 23.5584 16.3635ZM26.6261 17.9005C26.4119 18.0397 26.2106 18.1313 26.022 18.1753C25.8354 18.2196 25.6395 18.2282 25.4343 18.2011C25.0954 18.1564 24.8452 18.0396 24.6838 17.8508C24.5225 17.6601 24.458 17.4358 24.4901 17.1781C24.509 17.0269 24.56 16.8937 24.6432 16.7787C24.7286 16.6619 24.8312 16.573 24.951 16.512C25.0728 16.4512 25.2058 16.4107 25.35 16.3904C25.456 16.3768 25.6142 16.3711 25.8245 16.3733C26.2529 16.3786 26.5712 16.3596 26.7793 16.3162C26.7902 16.2447 26.7968 16.1993 26.7992 16.1799C26.8258 15.9667 26.7952 15.81 26.7073 15.7097C26.5884 15.5739 26.3973 15.4885 26.134 15.4537C25.8881 15.4213 25.7006 15.4408 25.5716 15.5124C25.4448 15.5824 25.3397 15.7231 25.2562 15.9347L24.7538 15.7974C24.8275 15.5845 24.926 15.4183 25.0492 15.2986C25.1726 15.177 25.3394 15.0937 25.5498 15.0486C25.7603 15.0015 25.9982 14.9955 26.2635 15.0306C26.5268 15.0653 26.7369 15.1246 26.8938 15.2084C27.0506 15.2921 27.1619 15.3866 27.2275 15.4918C27.2933 15.5951 27.3328 15.7205 27.3459 15.868C27.3522 15.9594 27.3409 16.1215 27.3119 16.354L27.2249 17.0518C27.1643 17.5382 27.1365 17.8478 27.1416 17.9805C27.1489 18.1115 27.1781 18.2404 27.2292 18.3673L26.6832 18.2952C26.6425 18.1795 26.6234 18.0479 26.6261 17.9005ZM26.7282 16.7261C26.5288 16.7786 26.2359 16.8068 25.8496 16.811C25.6308 16.8136 25.4745 16.8284 25.3806 16.8554C25.2867 16.8824 25.2108 16.9305 25.153 16.9997C25.0954 17.0669 25.0609 17.1461 25.0496 17.2372C25.0322 17.3767 25.07 17.4999 25.1629 17.6068C25.2578 17.7139 25.4069 17.7808 25.6102 17.8077C25.8116 17.8343 25.9962 17.8144 26.1639 17.7479C26.3318 17.6794 26.4621 17.5735 26.5548 17.4301C26.6257 17.3193 26.6755 17.1486 26.7043 16.918L26.7282 16.7261ZM27.8711 18.4521L28.256 15.3647L28.7265 15.4269L28.6681 15.8949C28.8155 15.6918 28.9439 15.562 29.0532 15.5055C29.1646 15.4493 29.2812 15.4292 29.4032 15.4453C29.5794 15.4686 29.7515 15.5485 29.9195 15.6849L29.6789 16.1467C29.5605 16.0542 29.4375 15.9995 29.3097 15.9826C29.1954 15.9675 29.0884 15.9889 28.9887 16.0466C28.8893 16.1024 28.8126 16.1888 28.7586 16.3058C28.6773 16.4842 28.6229 16.6839 28.5954 16.9048L28.3939 18.5212L27.8711 18.4521ZM31.8589 18.979L31.9074 18.5894C31.6737 18.8698 31.3671 18.9849 30.9876 18.9348C30.7417 18.9023 30.5236 18.8045 30.3333 18.6415C30.145 18.4787 30.0088 18.2686 29.9247 18.0113C29.8429 17.7522 29.8216 17.4648 29.861 17.1488C29.8994 16.8407 29.9855 16.5684 30.1193 16.3319C30.2534 16.0935 30.4313 15.921 30.6533 15.8144C30.8752 15.7078 31.113 15.6712 31.3666 15.7047C31.5525 15.7293 31.7131 15.7909 31.8484 15.8895C31.984 15.9863 32.0894 16.1036 32.1647 16.2416L32.3553 14.7124L32.8752 14.7811L32.3439 19.043L31.8589 18.979ZM30.3983 17.2198C30.349 17.6152 30.3955 17.9218 30.5376 18.1395C30.6797 18.3573 30.864 18.4811 31.0906 18.511C31.3191 18.5412 31.5243 18.4738 31.7063 18.3087C31.8904 18.1419 32.0064 17.8667 32.0542 17.4829C32.1069 17.0604 32.0643 16.7396 31.9262 16.5204C31.7882 16.3012 31.6002 16.1759 31.362 16.1444C31.1296 16.1137 30.9232 16.183 30.7427 16.3522C30.5641 16.5217 30.4493 16.8109 30.3983 17.2198Z" fill="white"/>
</svg>
