<svg width="39" height="27" viewBox="0 0 39 27" fill="none" xmlns="http://www.w3.org/2000/svg">
<path d="M1.65443 0.65625H36.3894C36.8382 0.668562 37.264 0.86154 37.5739 1.19332C37.8837 1.5251 38.0525 1.96861 38.0433 2.42703V24.561C38.0525 25.0194 37.8837 25.4629 37.5739 25.7947C37.264 26.1265 36.8382 26.3195 36.3894 26.3318H1.65443C1.20563 26.3195 0.779733 26.1265 0.469856 25.7947C0.159978 25.4629 -0.00876764 25.0194 0.000373359 24.561V2.42803C-0.00903529 1.96944 0.159706 1.52582 0.469612 1.19382C0.779517 0.861817 1.20546 0.668561 1.65443 0.65625Z" fill="#F1F1F1"/>
<path d="M0.409309 25.7284C0.143693 25.4008 -0.000972563 24.9883 0.000373611 24.563V2.42803C-0.00903503 1.96944 0.159584 1.52582 0.46949 1.19382C0.779396 0.861817 1.20533 0.668561 1.6543 0.65625H36.3883C36.81 0.657216 37.2144 0.827273 37.5143 1.12999L0.414314 25.7284H0.409309Z" fill="white" fill-opacity="0.73"/>
<path d="M14.6453 19.0017L15.9452 16.6016L15.2212 10.8375H16.9922L17.2782 14.2489L19.0112 10.8375H20.8392L16.6302 19.0017H14.6453ZM9.09216 14.6962C9.36516 13.293 10.6922 12.8476 12.6542 12.8476C12.7712 12.2236 12.3822 12.0672 11.7202 12.0907C11.1365 12.1195 10.5627 12.2556 10.0262 12.4921L10.1812 11.0898C10.8253 10.8854 11.4925 10.7655 12.1663 10.7333C13.3923 10.7108 14.7552 11.1105 14.4442 12.7374L13.6852 16.5672H11.9142L12.0302 15.9868C11.8246 16.2034 11.5789 16.3764 11.3073 16.4949C11.0356 16.6135 10.7436 16.6755 10.4482 16.6774C9.60924 16.6733 8.86226 16.1154 9.09326 14.6917L9.09216 14.6962ZM10.9032 14.607C10.8475 14.6876 10.8158 14.7831 10.812 14.8817C10.8082 14.9803 10.8326 15.0782 10.882 15.163C10.9314 15.2478 11.0037 15.3163 11.0903 15.3599C11.177 15.4036 11.2743 15.4204 11.3702 15.4088C11.5893 15.4188 11.8045 15.3476 11.9763 15.2084C12.1481 15.0691 12.2649 14.8715 12.3052 14.6513C12.3284 14.4792 12.3617 14.3087 12.4052 14.1407H11.9572C11.7576 14.1218 11.5567 14.1541 11.3726 14.2349C11.1884 14.3158 11.0271 14.4421 10.9032 14.603V14.607ZM2.99219 16.5672L4.45618 9.24226H7.76318C8.05798 9.23959 8.34914 9.30927 8.61218 9.44522C8.87523 9.58117 9.10254 9.7795 9.27502 10.0237C9.44751 10.2679 9.56016 10.5507 9.60352 10.8485C9.64688 11.1463 9.61963 11.4503 9.52417 11.7351C9.42898 12.4049 9.10023 13.0171 8.59827 13.459C8.0963 13.9009 7.45495 14.1433 6.79224 14.1407H5.40918L4.9342 16.5672H2.99219ZM5.68518 12.7374H6.59521C6.86141 12.7158 7.11346 12.606 7.31348 12.4253C7.51349 12.2446 7.65066 12.0023 7.70422 11.7351C7.7462 11.6252 7.7616 11.5068 7.74915 11.3895C7.73669 11.2722 7.69676 11.1596 7.63269 11.0614C7.56862 10.9632 7.48232 10.8824 7.3811 10.8255C7.27989 10.7686 7.16666 10.7371 7.05115 10.7343H6.1012L5.68518 12.7374Z" fill="#3284AE"/>
<path d="M26.3109 14.6956C26.5869 13.2924 27.9279 12.8486 29.9169 12.8486C30.0549 12.2235 29.661 12.0691 28.991 12.0916C28.3948 12.1229 27.8083 12.2584 27.257 12.492L27.4149 11.0898C28.0747 10.8879 28.756 10.7684 29.444 10.7342C30.685 10.7117 32.0439 11.111 31.7289 12.7369L30.9609 16.5657H29.1879L29.3059 15.9877C28.8763 16.426 28.2951 16.6743 27.6879 16.6784C26.8299 16.6773 26.0739 16.1203 26.3109 14.6956ZM28.1439 14.6069C28.09 14.6902 28.0607 14.7878 28.0596 14.8876C28.0584 14.9875 28.0856 15.0853 28.1376 15.1699C28.1896 15.2544 28.2642 15.322 28.3528 15.3644C28.4413 15.4067 28.5401 15.4221 28.637 15.4087C28.8548 15.4187 29.0686 15.3473 29.2389 15.2083C29.4092 15.0693 29.5243 14.8719 29.5629 14.6528C29.6019 14.474 29.622 14.3178 29.663 14.1421H29.2299C29.0249 14.1209 28.8181 14.1524 28.6279 14.2334C28.4378 14.3143 28.2704 14.4423 28.1409 14.6059L28.1439 14.6069ZM31.7799 16.5657L33.246 9.21875H35.0659L33.5809 16.5657H31.7799ZM20.2109 16.5657L21.673 9.24219H24.9729C25.2669 9.24138 25.5568 9.31214 25.8186 9.44864C26.0804 9.58514 26.3066 9.78347 26.4784 10.0271C26.6502 10.2707 26.7625 10.5525 26.8063 10.8494C26.85 11.1463 26.8238 11.4496 26.7299 11.734C26.6346 12.4062 26.3039 13.0202 25.7992 13.4624C25.2945 13.9047 24.6499 14.1451 23.9849 14.1391H22.6219L22.1279 16.5647L20.2109 16.5657ZM22.8979 12.7369H23.7859C24.0542 12.7158 24.3088 12.6072 24.5118 12.4267C24.7148 12.2462 24.8555 12.0036 24.913 11.735C24.9528 11.6236 24.9659 11.5042 24.9514 11.3865C24.9369 11.2688 24.8951 11.1562 24.8295 11.0583C24.7639 10.9605 24.6763 10.8804 24.5741 10.824C24.4719 10.7676 24.3581 10.7366 24.2419 10.7342H23.2939L22.8979 12.7369Z" fill="#3CA9C7"/>
</svg>
