<svg width="38" height="27" viewBox="0 0 38 27" fill="none" xmlns="http://www.w3.org/2000/svg">
<path d="M1.65278 0.65625H36.3472C36.5686 0.660632 36.787 0.709974 36.9899 0.801363C37.1928 0.892752 37.3762 1.02436 37.5297 1.18883C37.6831 1.3533 37.8036 1.54733 37.8842 1.75981C37.9649 1.97228 38.0041 2.19893 37.9997 2.42703V24.5625C38.0041 24.7906 37.9649 25.0172 37.8842 25.2297C37.8036 25.4422 37.6831 25.6362 37.5297 25.8007C37.3762 25.9652 37.1928 26.0968 36.9899 26.1882C36.787 26.2796 36.5686 26.3289 36.3472 26.3333H1.65278C1.43139 26.3289 1.21302 26.2796 1.01013 26.1882C0.807234 26.0968 0.623791 25.9652 0.470326 25.8007C0.316861 25.6362 0.196305 25.4422 0.115661 25.2297C0.0350173 25.0172 -0.00412576 24.7906 0.000343829 24.5625V2.42703C-0.00412576 2.19893 0.0350173 1.97228 0.115661 1.75981C0.196305 1.54733 0.316861 1.3533 0.470326 1.18883C0.623791 1.02436 0.807234 0.892752 1.01013 0.801363C1.21302 0.709974 1.43139 0.660632 1.65278 0.65625Z" fill="url(#paint0_linear_7601_6831)"/>
<path d="M29.7151 18.2495L29.4654 16.927H26.7552L26.3102 18.2495H24.0877L27.2667 10.013C27.3406 9.80872 27.4761 9.63405 27.6532 9.51479C27.8303 9.39554 28.0398 9.33802 28.2511 9.35023H29.965L31.6719 18.2505L29.7151 18.2495ZM28.4899 11.7703L27.3698 15.1009H29.1204L28.4899 11.7703ZM21.2666 11.887C21.2666 12.8592 24.2404 13.0673 24.2404 15.3029C24.2404 17.4557 22.0447 18.2475 20.5905 18.2475C19.764 18.2616 18.9439 18.0959 18.1837 17.7613L18.5009 15.831C19.3732 16.5663 22.019 16.7759 22.019 15.6085C22.019 14.4412 19.07 14.4135 19.07 12.1912C19.07 9.82997 21.5818 9.34375 22.6385 9.34375C23.293 9.36104 23.9404 9.48781 24.5556 9.71875L24.2513 11.5663C23.3413 11.0434 21.2646 10.9187 21.2646 11.891L21.2666 11.887ZM14.7401 18.2495L16.0723 9.34874H18.2046L16.8723 18.2495H14.7401ZM9.62811 18.2495L7.77831 10.5266C8.10509 10.7369 8.41685 10.971 8.71114 11.2272C9.60032 12.0111 10.2769 13.019 10.6748 14.1529L10.9157 15.4714L12.9488 9.35023H15.2436L11.8514 18.2505L9.62811 18.2495ZM7.6515 10.4408C7.58542 10.3986 7.51926 10.358 7.45317 10.3191C7.51662 10.3641 7.58204 10.4029 7.64944 10.4458L7.6515 10.4408ZM7.14195 10.1446C7.08446 10.114 7.02505 10.0815 6.96855 10.0529C7.02307 10.0866 7.08153 10.119 7.14001 10.1496L7.14195 10.1446Z" fill="#494CA3"/>
<defs>
<linearGradient id="paint0_linear_7601_6831" x1="19" y1="26.3333" x2="19" y2="0.65625" gradientUnits="userSpaceOnUse">
<stop stop-color="#E59703"/>
<stop offset="0.231" stop-color="#E59703"/>
<stop offset="0.234" stop-color="white"/>
<stop offset="0.761" stop-color="white"/>
<stop offset="0.766" stop-color="#5457BB"/>
<stop offset="1" stop-color="#5457BB"/>
</linearGradient>
</defs>
</svg>
