<svg width="38" height="27" viewBox="0 0 38 27" fill="none" xmlns="http://www.w3.org/2000/svg">
<path d="M1.65268 0.65625H36.3474C36.5689 0.660765 36.7872 0.710414 36.9901 0.801862C37.193 0.89331 37.3764 1.02488 37.5298 1.18933C37.6832 1.35378 37.8038 1.5479 37.8844 1.76031C37.965 1.97271 38.0041 2.19952 37.9997 2.42753V24.5645C38.0084 25.0248 37.8393 25.4698 37.5294 25.8017C37.2196 26.1336 36.7945 26.3252 36.3474 26.3343H1.65268C1.20566 26.3252 0.780431 26.1336 0.470571 25.8017C0.160711 25.4698 -0.00842318 25.0248 0.000343669 24.5645V2.42753C-0.00412914 2.19952 0.0350972 1.97271 0.115721 1.76031C0.196345 1.5479 0.316767 1.35378 0.470208 1.18933C0.623648 1.02488 0.807043 0.89331 1.00993 0.801862C1.21281 0.710414 1.43125 0.660765 1.65268 0.65625Z" fill="#353A40"/>
<path d="M22.501 17.5758C22.2388 17.4386 22.0231 17.2224 21.8822 16.9565C21.7132 16.6311 21.631 16.2657 21.6442 15.8968C21.6296 15.6454 21.6636 15.3935 21.7443 15.1558C21.825 14.9181 21.9508 14.6993 22.1143 14.512C22.2881 14.3415 22.494 14.2096 22.7194 14.1246C22.9448 14.0395 23.1847 14.0028 23.4244 14.0173C23.6658 14.0013 23.9079 14.0363 24.1358 14.1201C24.3636 14.2038 24.5725 14.3347 24.7495 14.5045C24.9114 14.6883 25.0359 14.9037 25.1158 15.1378C25.1957 15.372 25.2293 15.6202 25.2146 15.8679C25.2293 16.2271 25.1613 16.5847 25.0162 16.9116C24.8851 17.1777 24.681 17.3984 24.4291 17.5459C24.1342 17.7065 23.8034 17.7849 23.47 17.7728C23.1366 17.7852 22.8048 17.7178 22.501 17.5758ZM22.9037 15.1074C22.7758 15.3508 22.7089 15.6231 22.7089 15.8998C22.7089 16.1766 22.7758 16.4488 22.9037 16.6922C22.9711 16.7676 23.0531 16.8276 23.1442 16.8687C23.2354 16.9099 23.3338 16.9316 23.4333 16.9316C23.5329 16.9316 23.6313 16.9099 23.7224 16.8687C23.8136 16.8276 23.8954 16.7676 23.9629 16.6922C24.1132 16.4396 24.1794 16.1433 24.1514 15.8485C24.1727 15.5824 24.1026 15.3171 23.9531 15.099C23.8875 15.0208 23.8055 14.9593 23.7135 14.9184C23.6214 14.8776 23.5216 14.8585 23.4215 14.8631C23.3228 14.8602 23.2248 14.8806 23.135 14.9229C23.0453 14.9652 22.966 15.0286 22.9037 15.1074ZM13.0731 17.7359C12.9002 17.7184 12.732 17.6678 12.5772 17.5868C12.4368 17.5079 12.3128 17.4013 12.2123 17.2732C12.1093 17.1516 12.032 17.0097 11.9852 16.8558C11.9243 16.6573 11.8909 16.4509 11.886 16.2429V14.0797H12.9481V16.2938C12.9434 16.3779 12.9548 16.4625 12.9819 16.5421C13.009 16.6217 13.0512 16.6948 13.1059 16.7575C13.2262 16.864 13.3795 16.9226 13.5382 16.9226C13.6969 16.9226 13.8503 16.864 13.9707 16.7575C14.0253 16.6942 14.0674 16.6202 14.0943 16.5401C14.1212 16.46 14.1323 16.3754 14.1273 16.2908V14.0767H15.1896V16.2399C15.1901 16.4484 15.1566 16.6557 15.0904 16.8528C15.0293 17.0403 14.9275 17.2108 14.7928 17.3519C14.6741 17.4853 14.5282 17.5898 14.3655 17.6581C14.1262 17.7439 13.8738 17.7849 13.6205 17.7788C13.4377 17.7751 13.2553 17.7604 13.0742 17.7349L13.0731 17.7359ZM28.0878 17.7115L26.7984 15.7178V17.7115H25.7967V14.0807H26.7885L28.0868 16.0888V14.0807H29.0905V17.7115H28.0878ZM18.1917 17.7115L16.9024 15.7178V17.7115H15.9007V14.0807H16.8925L18.1898 16.0888V14.0807H19.1934V17.7115H18.1917ZM19.9472 17.702V14.0777H21.0183V17.702H19.9472ZM11.8096 12.6151C11.58 12.3701 11.4436 12.0485 11.4257 11.7085L12.4394 11.6422C12.45 11.7838 12.4957 11.9199 12.5722 12.0381C12.6275 12.1113 12.6991 12.1696 12.7809 12.2082C12.8628 12.2467 12.9524 12.2648 13.0423 12.26C13.1693 12.2687 13.295 12.228 13.3945 12.1463C13.4318 12.116 13.4619 12.0775 13.4829 12.0336C13.5038 11.9897 13.515 11.9414 13.5156 11.8925C13.5161 11.8436 13.5061 11.7953 13.4862 11.7509C13.4662 11.7065 13.437 11.667 13.4004 11.6357C13.2356 11.5257 13.0494 11.4538 12.8549 11.4252C12.4925 11.3628 12.15 11.2118 11.8562 10.9844C11.7594 10.8976 11.6824 10.7894 11.6309 10.6683C11.5795 10.5471 11.5548 10.416 11.5586 10.2838C11.5591 10.0962 11.6125 9.91265 11.7124 9.7557C11.8254 9.58063 11.9867 9.44459 12.1756 9.36474C12.4458 9.25817 12.7344 9.20969 13.0236 9.22262C13.3775 9.19831 13.73 9.28894 14.0312 9.48193C14.1527 9.58093 14.2523 9.7057 14.3235 9.84746C14.3946 9.98921 14.4357 10.1449 14.4438 10.3042L13.44 10.3666C13.4269 10.2309 13.3672 10.1043 13.2715 10.01C13.1702 9.93043 13.0445 9.89104 12.9174 9.89882C12.8176 9.89133 12.7184 9.92071 12.6377 9.9816C12.608 10.0061 12.5841 10.037 12.5677 10.0724C12.5514 10.1077 12.5432 10.1464 12.5435 10.1856C12.5443 10.2161 12.5517 10.2461 12.5653 10.2733C12.5789 10.3005 12.5982 10.3246 12.6219 10.3431C12.7302 10.4142 12.8524 10.4594 12.9798 10.4758C13.3246 10.5415 13.6605 10.6491 13.9806 10.7964C14.1611 10.8855 14.3134 11.0254 14.4199 11.1999C14.512 11.3624 14.5594 11.5477 14.5569 11.7359C14.5581 11.9646 14.4943 12.1884 14.3733 12.3802C14.249 12.5781 14.0706 12.7337 13.8606 12.8275C13.5975 12.9369 13.3151 12.9891 13.0314 12.9801C12.5934 13.0272 12.1549 12.8966 11.8096 12.6151ZM28.0887 12.9113L26.7995 10.9171V12.9113H25.7978V9.28097H26.7896L28.0878 11.2896V9.28097H29.0914V12.9113H28.0887ZM24.2456 12.9113L23.6763 11.8012C23.6305 11.696 23.5648 11.6013 23.483 11.5225C23.4067 11.4663 23.3149 11.4366 23.2211 11.4377H23.1269V12.9113H22.0567V9.28097H23.831C24.0855 9.27068 24.3401 9.30056 24.5858 9.36973C24.7583 9.42777 24.9068 9.54373 25.0073 9.69935C25.1176 9.87407 25.1733 10.0795 25.167 10.2878C25.1715 10.4697 25.1293 10.6499 25.045 10.8099C24.9632 10.9553 24.8473 11.0768 24.7078 11.1639C24.5913 11.2321 24.4651 11.2811 24.3338 11.3091C24.4322 11.339 24.5258 11.3836 24.6116 11.4417C24.6753 11.4985 24.7323 11.563 24.7812 11.6337C24.8378 11.7036 24.8879 11.7791 24.9309 11.8586L25.4467 12.9113H24.2456ZM23.1279 10.7505H23.5772C23.6723 10.7435 23.7666 10.7267 23.8588 10.7012C23.9279 10.6866 23.9894 10.6464 24.0314 10.588C24.0761 10.5272 24.0999 10.4528 24.0988 10.3765C24.1019 10.3261 24.094 10.2758 24.0756 10.2289C24.0572 10.1821 24.0289 10.1398 23.9927 10.1058C23.874 10.0307 23.7345 9.99818 23.5959 10.013H23.1279V10.7505ZM18.5657 12.9113V9.28097H21.42V10.0559H19.6348V10.6329H21.2931V11.3744H19.6348V12.0895H21.4746V12.9113H18.5657ZM15.9354 12.9113V10.1776H14.8494V9.28097H18.0876V10.1776H16.9966V12.9113H15.9354ZM8.13496 12.9113V9.28097H10.9894V10.0559H9.20411V10.6329H10.8614V11.3744H9.19624V12.0895H11.034V12.9113H8.13496ZM5.98576 12.9113L5.38175 10.6249L4.7798 12.9113H3.73547L2.96875 9.28097H3.98039L4.34444 11.313L4.87799 9.28097H5.88564L6.42015 11.3111L6.7842 9.28097H7.79088L7.03118 12.9113H5.98576Z" fill="#ECD345"/>
<path d="M33.8404 17.7691V9.21094H35.0305V17.7691H33.8404ZM30.875 17.7691V9.21094H32.0651V17.7691H30.875Z" fill="#ECD345"/>
</svg>
